<svg width="742" height="695" viewBox="0 0 742 695" fill="none" xmlns="http://www.w3.org/2000/svg">
<path fill-rule="evenodd" clip-rule="evenodd" d="M356.416 331.653L68.8277 192.929C65.0404 191.103 65.0624 185.701 68.8644 183.905L363.09 44.9162C368.507 42.3577 374.784 42.3615 380.198 44.9265L430.611 68.8159C356.45 105.376 227.492 170.703 205.022 182.094C203.564 182.833 203.663 184.846 205.119 185.589L256.847 212.002C259.675 213.446 263.012 213.456 265.853 212.038L493.237 98.4922L549.786 125.289C473.608 162.694 340.949 229.096 318.062 240.559C316.596 241.293 316.696 243.311 318.156 244.057L369.881 270.467C372.698 271.906 376.022 271.922 378.857 270.519L612.343 154.933L673.488 183.908C677.283 185.706 677.304 191.098 673.525 192.927L386.867 331.634C377.252 336.287 366.038 336.294 356.416 331.653Z" fill="#449AFF"/>
<path fill-rule="evenodd" clip-rule="evenodd" d="M649.19 332.016L687.809 221.336C689.274 217.139 684.943 213.261 680.932 215.178L399.906 349.506C387.743 355.319 380 367.602 380 381.084V633.32C380 637.295 384.415 639.681 387.74 637.502L579.114 512.116C585.196 508.131 589.791 502.25 592.187 495.385L629.093 389.614L573.158 425.193C571.985 425.94 571.107 427.071 570.675 428.393L559.194 463.543C558.75 464.902 557.835 466.058 556.615 466.802L442.343 536.518C441.011 537.331 439.302 536.372 439.302 534.811V395.358C439.302 392.678 440.832 390.234 443.242 389.062L593.156 316.217C594.685 315.474 596.384 316.856 595.969 318.504L582.054 373.761C581.832 374.643 582.808 375.34 583.57 374.842L649.19 332.016Z" fill="#449AFF"/>
<path fill-rule="evenodd" clip-rule="evenodd" d="M146.921 497.598L50.2913 220.662C48.8268 216.465 53.1577 212.587 57.1685 214.504L338.195 348.832C350.358 354.646 358.101 366.928 358.101 380.41V632.646C358.101 636.621 353.686 639.007 350.36 636.828L269.913 584.12L214.701 467.735C213.673 465.568 212.019 463.759 209.953 462.541L169.12 438.469C168.368 438.025 167.449 438.691 167.636 439.544L187.49 530.118L156.429 509.766C152.006 506.868 148.664 502.591 146.921 497.598ZM301.291 545.711L274.996 489.834C274.199 488.14 275.959 486.377 277.655 487.172L303.95 499.498C304.652 499.827 305.101 500.533 305.101 501.309V544.859C305.101 546.996 302.201 547.644 301.291 545.711ZM140.732 320.646L154.31 378.354C155.363 382.831 158.292 386.638 162.35 388.804L303.174 463.973C304.506 464.685 306.115 463.719 306.115 462.209V409.94C306.115 405.458 303.617 401.349 299.637 399.286L143.599 318.412C142.081 317.626 140.34 318.982 140.732 320.646Z" fill="#449AFF"/>
<path fill-rule="evenodd" clip-rule="evenodd" d="M150.169 113.834C154.39 113.834 157.812 110.412 157.812 106.191C157.812 101.97 154.39 98.5486 150.169 98.5486C145.948 98.5486 142.527 101.97 142.527 106.191C142.527 110.412 145.948 113.834 150.169 113.834ZM150.169 126.571C161.425 126.571 170.549 117.447 170.549 106.191C170.549 94.9355 161.425 85.811 150.169 85.811C138.914 85.811 129.789 94.9355 129.789 106.191C129.789 117.447 138.914 126.571 150.169 126.571Z" fill="#449AFF"/>
<path fill-rule="evenodd" clip-rule="evenodd" d="M511.647 612.61C507.426 612.61 504.005 609.188 504.005 604.967C504.005 600.746 507.426 597.324 511.647 597.324C515.868 597.324 519.29 600.746 519.29 604.967C519.29 609.188 515.868 612.61 511.647 612.61ZM511.647 625.347C500.392 625.347 491.267 616.223 491.267 604.967C491.267 593.711 500.392 584.587 511.647 584.587C522.903 584.587 532.027 593.711 532.027 604.967C532.027 616.223 522.903 625.347 511.647 625.347Z" fill="#449AFF"/>
<path fill-rule="evenodd" clip-rule="evenodd" d="M580.296 108.47C584.517 108.47 587.939 105.049 587.939 100.828C587.939 96.607 584.517 93.1853 580.296 93.1853C576.075 93.1853 572.654 96.607 572.654 100.828C572.654 105.049 576.075 108.47 580.296 108.47ZM580.296 121.208C591.552 121.208 600.676 112.083 600.676 100.828C600.676 89.5722 591.552 80.4478 580.296 80.4478C569.04 80.4478 559.916 89.5722 559.916 100.828C559.916 112.083 569.04 121.208 580.296 121.208Z" fill="#449AFF"/>
<path fill-rule="evenodd" clip-rule="evenodd" d="M355.377 4.03313C366.843 -1.38368 380.149 -1.34217 391.582 4.14607L575.588 92.4778C572.637 95.2122 570.581 98.8989 569.91 103.049L386.375 14.9443C378.209 11.0241 368.705 10.9945 360.515 14.8636L186.151 97.2306L186.198 97.0551C185.873 97.2876 185.512 97.5121 185.124 97.716L184.405 98.0558C181.924 99.0978 178.701 99.1347 176.704 95.4727C174.172 90.8309 178.286 88.0881 180.924 86.5056L180.855 86.475L355.377 4.03313ZM608.776 121.707L712.605 171.55C726.208 178.08 732.837 193.673 728.088 207.97L625.927 515.552C623.791 521.982 619.535 527.499 613.853 531.205L514.183 596.204C517.372 598.687 519.769 602.138 520.935 606.115L620.423 541.235C628.378 536.048 634.336 528.323 637.325 519.322L739.487 211.74C746.135 191.723 736.855 169.894 717.811 160.752L613.177 110.523C610.538 110.118 607.459 110.8 606.067 113.934C604.531 117.39 606.542 119.95 608.776 121.707ZM475.28 621.574L389.987 677.196C379.976 683.725 367.036 683.702 357.048 677.137L272.391 621.49C269.623 620.041 265.307 619.096 263.164 623.025C261.539 626.004 262.652 628.636 264.355 630.557L350.442 687.144C364.425 696.335 382.541 696.367 396.557 687.227L483.496 630.531C485.186 628.612 486.281 625.99 484.664 623.025C482.48 619.021 478.039 620.079 475.28 621.574ZM134.707 530.989L234.247 596.418C231.107 598.953 228.768 602.442 227.672 606.445L128.101 540.995C120.455 535.969 114.662 528.589 111.605 519.977L2.42047 212.458C-4.7798 192.178 4.56626 169.751 24.054 160.546L140.383 105.593C140.764 109.807 142.561 113.613 145.294 116.531L29.1922 171.376C15.2724 177.952 8.59668 193.971 13.7397 208.456L122.924 515.976C125.108 522.127 129.246 527.399 134.707 530.989Z" fill="#449AFF"/>
<path fill-rule="evenodd" clip-rule="evenodd" d="M237.053 612.61C241.274 612.61 244.695 609.188 244.695 604.967C244.695 600.746 241.274 597.324 237.053 597.324C232.832 597.324 229.41 600.746 229.41 604.967C229.41 609.188 232.832 612.61 237.053 612.61ZM237.053 625.347C248.309 625.347 257.433 616.223 257.433 604.967C257.433 593.711 248.309 584.587 237.053 584.587C225.797 584.587 216.673 593.711 216.673 604.967C216.673 616.223 225.797 625.347 237.053 625.347Z" fill="#449AFF"/>
</svg>
