<?xml version="1.0" encoding="iso-8859-1"?>
<!-- Uploaded to: SVG Repo, www.svgrepo.com, Generator: SVG Repo Mixer Tools -->
<!DOCTYPE svg PUBLIC "-//W3C//DTD SVG 1.1//EN" "http://www.w3.org/Graphics/SVG/1.1/DTD/svg11.dtd">
<svg fill="#000000" version="1.1" id="Capa_1" xmlns="http://www.w3.org/2000/svg" xmlns:xlink="http://www.w3.org/1999/xlink" 
	 width="800px" height="800px" viewBox="0 0 45.326 45.325"
	 xml:space="preserve">
<g>
	<path d="M39.332,12.602h-2.585V4.285c1.165,0,2.138-0.959,2.138-2.142S37.919,0,36.737,0H27.31c-1.183,0-2.135,0.959-2.135,2.143
		s0.93,2.142,2.146,2.142v8.317h-9.318V4.285c1.218,0,2.148-0.959,2.148-2.142S19.199,0,18.015,0H8.589
		C7.407,0,6.442,0.959,6.442,2.143S7.415,4.285,8.58,4.285v8.317H5.994c-3.227,0-5.834,2.647-5.834,5.874v20.997
		c0,3.228,2.607,5.853,5.834,5.853h33.338c3.227,0,5.834-2.625,5.834-5.853V18.475C45.166,15.249,42.558,12.602,39.332,12.602z
		 M41.248,39.473c0,1.054-0.861,1.934-1.916,1.934H5.994c-1.054,0-1.916-0.88-1.916-1.934V18.475c0-1.053,0.862-1.902,1.916-1.902
		h2.585v15.663c0,2.603,2.109,4.713,4.712,4.713c2.604,0,4.713-2.11,4.713-4.713V16.573h9.318v15.663
		c0,2.603,2.109,4.713,4.712,4.713c2.604,0,4.713-2.11,4.713-4.713V16.573h2.585c1.055,0,1.916,0.849,1.916,1.902V39.473z"/>
</g>
</svg>